<svg width="22" height="22" viewBox="0 0 22 22" fill="none" xmlns="http://www.w3.org/2000/svg">
<g opacity="0.8">
<path d="M13.4216 3.1901C13.5866 3.1901 13.7516 3.1901 14.0816 3.1901V5.6651C13.9166 5.6651 13.5866 5.6651 13.2566 5.6651C12.9266 5.6651 12.5966 5.6651 12.4316 5.8301C12.2666 5.9951 12.2666 6.1601 12.2666 6.5451C12.2666 6.8751 12.2666 7.0951 12.2666 7.4251H14.0816V9.5151H12.2666V18.5901H9.46157V9.4601H7.97656V7.3701H9.46157V6.6551C9.46157 5.4451 9.62657 4.5651 9.95657 4.1801C10.4516 3.4651 11.4416 3.1351 12.9266 3.1351C13.0916 3.1901 13.2566 3.1901 13.4216 3.1901Z" fill="#F3F3F3"/>
</g>
</svg>
