<svg width="22" height="22" viewBox="0 0 22 22" fill="none" xmlns="http://www.w3.org/2000/svg">
<g opacity="0.8">
<path d="M19.7425 7.39473C19.7318 6.65612 19.595 5.92335 19.333 5.23254C18.8747 4.0529 17.9413 3.12011 16.7597 2.66348C16.0765 2.40686 15.3543 2.26929 14.6232 2.25368C13.683 2.21172 13.3849 2.20001 10.9982 2.20001C8.61157 2.20001 8.30566 2.20001 7.3723 2.25368C6.64222 2.26929 5.91996 2.40686 5.2368 2.66348C4.05519 3.12011 3.12085 4.0529 2.66346 5.23254C2.40642 5.91457 2.26763 6.63563 2.25395 7.36449C2.21192 8.3041 2.19922 8.6017 2.19922 10.9844C2.19922 13.3671 2.19922 13.6715 2.25395 14.6043C2.26861 15.3342 2.40642 16.0542 2.66346 16.7382C3.12183 17.9169 4.05519 18.8497 5.23778 19.3063C5.91801 19.5717 6.64027 19.722 7.37327 19.7454C8.31446 19.7873 8.61255 19.8 10.9992 19.8C13.3859 19.8 13.6918 19.8 14.6252 19.7454C15.3552 19.7307 16.0775 19.5932 16.7616 19.3365C17.9432 18.8789 18.8766 17.9461 19.335 16.7675C19.592 16.0845 19.7298 15.3644 19.7445 14.6336C19.7865 13.6949 19.7992 13.3974 19.7992 11.0137C19.7973 8.63097 19.7973 8.3285 19.7425 7.39473ZM10.9924 15.4903C8.49624 15.4903 6.47412 13.4715 6.47412 10.9795C6.47412 8.48754 8.49624 6.46878 10.9924 6.46878C13.4866 6.46878 15.5106 8.48754 15.5106 10.9795C15.5106 13.4715 13.4866 15.4903 10.9924 15.4903ZM15.6905 7.35375C15.107 7.35375 14.6369 6.88346 14.6369 6.30193C14.6369 5.7204 15.107 5.25011 15.6905 5.25011C16.272 5.25011 16.7431 5.7204 16.7431 6.30193C16.7431 6.88346 16.272 7.35375 15.6905 7.35375Z" fill="#F3F3F3"/>
<path d="M10.9949 13.7335C12.5152 13.7335 13.7477 12.501 13.7477 10.9807C13.7477 9.46041 12.5152 8.22797 10.9949 8.22797C9.47464 8.22797 8.24219 9.46041 8.24219 10.9807C8.24219 12.501 9.47464 13.7335 10.9949 13.7335Z" fill="#F3F3F3"/>
</g>
</svg>
