<svg width="22" height="22" viewBox="0 0 22 22" fill="none" xmlns="http://www.w3.org/2000/svg">
<g opacity="0.8">
<path fill-rule="evenodd" clip-rule="evenodd" d="M16.6656 4.12489C15.7306 4.06989 13.8056 4.01489 10.8906 4.01489H10.5056C7.70062 4.01489 5.83065 4.06989 4.89565 4.17989C3.63065 4.28989 2.75062 4.61989 2.25562 5.05989C1.81562 5.44489 1.48563 6.15989 1.37563 7.09489C1.32063 7.69989 1.26562 8.96489 1.26562 10.8899V11.1649C1.26562 12.9799 1.32062 14.2449 1.43062 14.8499C1.59562 15.7299 1.87065 16.3899 2.42065 16.7749C2.97065 17.2149 3.90563 17.4899 5.22563 17.5999C6.16063 17.6549 8.08563 17.7099 11.0006 17.7099H11.3856C14.1906 17.7099 16.0606 17.6549 16.9956 17.5449C18.2606 17.4349 19.1406 17.1049 19.6356 16.6649C20.0756 16.2799 20.4056 15.5649 20.5156 14.6299C20.5706 14.0249 20.6256 12.7599 20.6256 10.8349V10.5599C20.6256 8.74489 20.5706 7.47989 20.4606 6.87489C20.2956 5.99489 20.0206 5.33489 19.4706 4.94989C18.9206 4.50989 17.9856 4.23489 16.6656 4.12489ZM14.5206 10.8899L8.47065 14.5199V7.25989L14.5206 10.8899Z" fill="#F3F3F3"/>
</g>
</svg>
