<svg xmlns="http://www.w3.org/2000/svg" aria-hidden="true" style="position:absolute;width:0;height:0;overflow:hidden">
    <defs>
        <symbol id="icon-close" viewBox="0 0 32 32">
            <path stroke-linecap="round" stroke-linejoin="round" stroke-width="1.684" d="M24 8 8 24M8 8l16 16"/>
        </symbol>
        <symbol id="icon-menu-burger" viewBox="0 0 32 32">
            <path stroke-linecap="round" stroke-linejoin="round" stroke-width="2" d="M28 13.334H4M28 8H4M28 18.666H4M28 24H4"/>
        </symbol>
        <symbol id="icon-Vector" viewBox="0 0 32 32">
            <path d="M22.13 0H9.87L0 9.87v12.26L9.87 32h12.26L32 22.13V9.87L22.13 0zM11.566 22.284l-6.323-6.323 6.323-6.323c2.39-2.39 6.323-2.39 8.713 0l6.323 6.323-6.323 6.323c-2.39 2.39-6.246 2.39-8.713 0z"/>
        </symbol>
        <symbol id="icon-knob" viewBox="0 0 32 32">
            <path d="M14.769 24.615c6.118 0 11.077-4.959 11.077-11.077S20.887 2.461 14.769 2.461 3.692 7.42 3.692 13.538s4.959 11.077 11.077 11.077z"/>
        </symbol>
        <symbol id="icon-Rectangle" viewBox="0 0 40 20">
            <path d="M0 10C0 4.477 4.477 0 10 0h20c5.523 0 10 4.477 10 10s-4.477 10-10 10H10C4.477 20 0 15.523 0 10z" />
        </symbol>
    </defs>
</svg>